<svg xmlns="http://www.w3.org/2000/svg" viewBox="0 0 16 16" shape-rendering="crispEdges">
  <rect width="16" height="16" fill="#151120" />

  <rect x="4" y="2" width="8" height="1" fill="#2f243f" />
  <rect x="3" y="3" width="10" height="1" fill="#2f243f" />
  <rect x="3" y="4" width="1" height="1" fill="#2f243f" />
  <rect x="12" y="4" width="1" height="1" fill="#2f243f" />

  <rect x="4" y="4" width="8" height="7" fill="#ffd1a8" />
  <rect x="3" y="5" width="1" height="4" fill="#ffd1a8" />
  <rect x="12" y="5" width="1" height="4" fill="#ffd1a8" />
  <rect x="4" y="11" width="8" height="1" fill="#ffd1a8" />

  <rect x="5" y="6" width="1" height="1" fill="#2f243f" />
  <rect x="10" y="6" width="1" height="1" fill="#2f243f" />
  <rect x="5" y="8" width="1" height="1" fill="#ff8fab" />
  <rect x="10" y="8" width="1" height="1" fill="#ff8fab" />

  <rect x="6" y="9" width="4" height="1" fill="#2f243f" />
  <rect x="5" y="10" width="1" height="1" fill="#2f243f" />
  <rect x="10" y="10" width="1" height="1" fill="#2f243f" />

  <rect x="4" y="12" width="8" height="1" fill="#2f243f" />
  <rect x="5" y="13" width="6" height="1" fill="#2f243f" />
</svg>
